<svg width="35" height="35" viewBox="0 0 35 35" fill="none" xmlns="http://www.w3.org/2000/svg">
<g clip-path="url(#clip0_378_1175)">
<path d="M12.4769 14.2594V10.2085H40.8333V14.2594H12.4769ZM12.4769 22.3613V18.3104H40.8333V22.3613H12.4769ZM12.4769 30.4631V26.4122H40.8333V30.4631H12.4769ZM6.40047 14.2594C5.82659 14.2594 5.3452 14.065 4.95631 13.6761C4.56743 13.2872 4.37366 12.8065 4.37501 12.234C4.37501 11.6601 4.56945 11.1787 4.95834 10.7898C5.34723 10.4009 5.82794 10.2072 6.40047 10.2085C6.97435 10.2085 7.45573 10.4029 7.84462 10.7918C8.23351 11.1807 8.42728 11.6614 8.42593 12.234C8.42593 12.8078 8.23149 13.2892 7.8426 13.6781C7.45371 14.067 6.973 14.2608 6.40047 14.2594ZM6.40047 22.3613C5.82659 22.3613 5.3452 22.1668 4.95631 21.7779C4.56743 21.3891 4.37366 20.9083 4.37501 20.3358C4.37501 19.7619 4.56945 19.2805 4.95834 18.8917C5.34723 18.5028 5.82794 18.309 6.40047 18.3104C6.97435 18.3104 7.45573 18.5048 7.84462 18.8937C8.23351 19.2826 8.42728 19.7633 8.42593 20.3358C8.42593 20.9097 8.23149 21.3911 7.8426 21.78C7.45371 22.1689 6.973 22.3626 6.40047 22.3613ZM6.40047 30.4631C5.82659 30.4631 5.3452 30.2687 4.95631 29.8798C4.56743 29.4909 4.37366 29.0102 4.37501 28.4377C4.37501 27.8638 4.56945 27.3824 4.95834 26.9935C5.34723 26.6046 5.82794 26.4109 6.40047 26.4122C6.97435 26.4122 7.45573 26.6066 7.84462 26.9955C8.23351 27.3844 8.42728 27.8651 8.42593 28.4377C8.42593 29.0115 8.23149 29.4929 7.8426 29.8818C7.45371 30.2707 6.973 30.4645 6.40047 30.4631Z" fill="#A1A1A1"/>
</g>
<defs>
<clipPath id="clip0_378_1175">
<rect width="35" height="35" fill="white"/>
</clipPath>
</defs>
</svg>
