<svg width="35" height="35" viewBox="0 0 35 35" fill="none" xmlns="http://www.w3.org/2000/svg">
<path d="M10.3906 8.20313C10.3906 8.63577 10.2623 9.0587 10.022 9.41844C9.7816 9.77817 9.43996 10.0585 9.04025 10.2241C8.64053 10.3897 8.2007 10.433 7.77637 10.3486C7.35203 10.2642 6.96226 10.0558 6.65633 9.74992C6.3504 9.44399 6.14206 9.05422 6.05766 8.62989C5.97325 8.20555 6.01657 7.76572 6.18214 7.36601C6.34771 6.96629 6.62808 6.62465 6.98782 6.38429C7.34755 6.14392 7.77048 6.01563 8.20313 6.01563C8.78329 6.01563 9.33969 6.24609 9.74992 6.65633C10.1602 7.06657 10.3906 7.62297 10.3906 8.20313ZM17.5 6.01563C17.0674 6.01563 16.6444 6.14392 16.2847 6.38429C15.925 6.62465 15.6446 6.96629 15.479 7.36601C15.3134 7.76572 15.2701 8.20555 15.3545 8.62989C15.4389 9.05422 15.6473 9.44399 15.9532 9.74992C16.2591 10.0558 16.6489 10.2642 17.0732 10.3486C17.4976 10.433 17.9374 10.3897 18.3371 10.2241C18.7368 10.0585 19.0785 9.77817 19.3188 9.41844C19.5592 9.0587 19.6875 8.63577 19.6875 8.20313C19.6875 7.62297 19.457 7.06657 19.0468 6.65633C18.6366 6.24609 18.0802 6.01563 17.5 6.01563ZM26.7969 10.3906C27.2295 10.3906 27.6525 10.2623 28.0122 10.022C28.3719 9.7816 28.6523 9.43996 28.8179 9.04025C28.9834 8.64053 29.0268 8.2007 28.9423 7.77637C28.8579 7.35203 28.6496 6.96226 28.3437 6.65633C28.0377 6.3504 27.648 6.14206 27.2236 6.05766C26.7993 5.97325 26.3595 6.01657 25.9598 6.18214C25.56 6.34771 25.2184 6.62808 24.978 6.98782C24.7377 7.34755 24.6094 7.77048 24.6094 8.20313C24.6094 8.78329 24.8398 9.33969 25.2501 9.74992C25.6603 10.1602 26.2167 10.3906 26.7969 10.3906ZM8.20313 15.3125C7.77048 15.3125 7.34755 15.4408 6.98782 15.6812C6.62808 15.9215 6.34771 16.2632 6.18214 16.6629C6.01657 17.0626 5.97325 17.5024 6.05766 17.9268C6.14206 18.3511 6.3504 18.7409 6.65633 19.0468C6.96226 19.3527 7.35203 19.5611 7.77637 19.6455C8.2007 19.7299 8.64053 19.6866 9.04025 19.521C9.43996 19.3554 9.7816 19.075 10.022 18.7153C10.2623 18.3556 10.3906 17.9326 10.3906 17.5C10.3906 16.9198 10.1602 16.3634 9.74992 15.9532C9.33969 15.543 8.78329 15.3125 8.20313 15.3125ZM17.5 15.3125C17.0674 15.3125 16.6444 15.4408 16.2847 15.6812C15.925 15.9215 15.6446 16.2632 15.479 16.6629C15.3134 17.0626 15.2701 17.5024 15.3545 17.9268C15.4389 18.3511 15.6473 18.7409 15.9532 19.0468C16.2591 19.3527 16.6489 19.5611 17.0732 19.6455C17.4976 19.7299 17.9374 19.6866 18.3371 19.521C18.7368 19.3554 19.0785 19.075 19.3188 18.7153C19.5592 18.3556 19.6875 17.9326 19.6875 17.5C19.6875 16.9198 19.457 16.3634 19.0468 15.9532C18.6366 15.543 18.0802 15.3125 17.5 15.3125ZM26.7969 15.3125C26.3642 15.3125 25.9413 15.4408 25.5816 15.6812C25.2218 15.9215 24.9415 16.2632 24.7759 16.6629C24.6103 17.0626 24.567 17.5024 24.6514 17.9268C24.7358 18.3511 24.9442 18.7409 25.2501 19.0468C25.556 19.3527 25.9458 19.5611 26.3701 19.6455C26.7945 19.7299 27.2343 19.6866 27.634 19.521C28.0337 19.3554 28.3754 19.075 28.6157 18.7153C28.8561 18.3556 28.9844 17.9326 28.9844 17.5C28.9844 16.9198 28.7539 16.3634 28.3437 15.9532C27.9334 15.543 27.377 15.3125 26.7969 15.3125ZM8.20313 24.6094C7.77048 24.6094 7.34755 24.7377 6.98782 24.978C6.62808 25.2184 6.34771 25.56 6.18214 25.9598C6.01657 26.3595 5.97325 26.7993 6.05766 27.2236C6.14206 27.648 6.3504 28.0377 6.65633 28.3437C6.96226 28.6496 7.35203 28.8579 7.77637 28.9423C8.2007 29.0268 8.64053 28.9834 9.04025 28.8179C9.43996 28.6523 9.7816 28.3719 10.022 28.0122C10.2623 27.6525 10.3906 27.2295 10.3906 26.7969C10.3906 26.2167 10.1602 25.6603 9.74992 25.2501C9.33969 24.8398 8.78329 24.6094 8.20313 24.6094ZM17.5 24.6094C17.0674 24.6094 16.6444 24.7377 16.2847 24.978C15.925 25.2184 15.6446 25.56 15.479 25.9598C15.3134 26.3595 15.2701 26.7993 15.3545 27.2236C15.4389 27.648 15.6473 28.0377 15.9532 28.3437C16.2591 28.6496 16.6489 28.8579 17.0732 28.9423C17.4976 29.0268 17.9374 28.9834 18.3371 28.8179C18.7368 28.6523 19.0785 28.3719 19.3188 28.0122C19.5592 27.6525 19.6875 27.2295 19.6875 26.7969C19.6875 26.2167 19.457 25.6603 19.0468 25.2501C18.6366 24.8398 18.0802 24.6094 17.5 24.6094ZM26.7969 24.6094C26.3642 24.6094 25.9413 24.7377 25.5816 24.978C25.2218 25.2184 24.9415 25.56 24.7759 25.9598C24.6103 26.3595 24.567 26.7993 24.6514 27.2236C24.7358 27.648 24.9442 28.0377 25.2501 28.3437C25.556 28.6496 25.9458 28.8579 26.3701 28.9423C26.7945 29.0268 27.2343 28.9834 27.634 28.8179C28.0337 28.6523 28.3754 28.3719 28.6157 28.0122C28.8561 27.6525 28.9844 27.2295 28.9844 26.7969C28.9844 26.2167 28.7539 25.6603 28.3437 25.2501C27.9334 24.8398 27.377 24.6094 26.7969 24.6094Z" fill="#A2A2A2"/>
</svg>
