<svg width="29" height="29" viewBox="0 0 29 29" fill="none" xmlns="http://www.w3.org/2000/svg">
<path d="M15.0417 23.0625L14.9167 23.1875L14.7792 23.0625C8.84166 17.675 4.91666 14.1125 4.91666 10.5C4.91666 8 6.79166 6.125 9.29166 6.125C11.2167 6.125 13.0917 7.375 13.7542 9.075H16.0792C16.7417 7.375 18.6167 6.125 20.5417 6.125C23.0417 6.125 24.9167 8 24.9167 10.5C24.9167 14.1125 20.9917 17.675 15.0417 23.0625ZM20.5417 3.625C18.3667 3.625 16.2792 4.6375 14.9167 6.225C13.5542 4.6375 11.4667 3.625 9.29166 3.625C5.44166 3.625 2.41666 6.6375 2.41666 10.5C2.41666 15.2125 6.66666 19.075 13.1042 24.9125L14.9167 26.5625L16.7292 24.9125C23.1667 19.075 27.4167 15.2125 27.4167 10.5C27.4167 6.6375 24.3917 3.625 20.5417 3.625Z" fill="#6A6A6A"/>
</svg>
